<svg width="112" height="14" viewBox="0 0 112 14" fill="none" xmlns="http://www.w3.org/2000/svg">
<path d="M13.472 1.12V13H11.24V6.808L11.348 3.334H11.312L8.018 13H5.984L2.708 3.334H2.672L2.798 6.808V13H0.548V1.12H4.148L6.29 7.6L7.046 10.282H7.082L7.856 7.618L9.98 1.12H13.472ZM16.5617 13V1.12H25.4717V3.118H19.0457V6.07H24.1037V7.978H19.0457V11.002H25.7237V13H16.5617ZM27.9523 13V1.12H36.8623V3.118H30.4363V6.07H35.4943V7.978H30.4363V11.002H37.1143V13H27.9523ZM48.7389 1.12V3.118H44.7609V13H42.2769V3.118H38.2809V1.12H48.7389ZM55.8839 13V1.12H61.0859C62.5259 1.12 63.5879 1.402 64.2719 1.966C64.9559 2.53 65.2979 3.328 65.2979 4.36C65.2979 4.996 65.1059 5.56 64.7219 6.052C64.3379 6.544 63.7739 6.856 63.0299 6.988V7.006C63.8579 7.126 64.4939 7.438 64.9379 7.942C65.3819 8.446 65.6039 9.046 65.6039 9.742C65.6039 10.762 65.2319 11.56 64.4879 12.136C63.7559 12.712 62.6819 13 61.2659 13H55.8839ZM58.2959 6.106H60.7619C62.0699 6.106 62.7239 5.596 62.7239 4.576C62.7239 3.556 62.0699 3.046 60.7619 3.046H58.2959V6.106ZM58.2959 11.128H61.0499C61.7099 11.128 62.2019 10.996 62.5259 10.732C62.8619 10.456 63.0299 10.066 63.0299 9.562C63.0299 9.07 62.8619 8.692 62.5259 8.428C62.2019 8.152 61.7099 8.014 61.0499 8.014H58.2959V11.128ZM67.9777 13V1.12H76.8877V3.118H70.4617V6.07H75.5197V7.978H70.4617V11.002H77.1397V13H67.9777ZM81.8523 11.002H88.1163V13H79.3683V1.12H81.8523V11.002ZM92.6629 11.002H98.9269V13H90.1789V1.12H92.6629V11.002ZM105.715 0.94C106.891 0.94 107.905 1.186 108.757 1.678C109.609 2.17 110.263 2.872 110.719 3.784C111.187 4.696 111.421 5.788 111.421 7.06C111.421 8.332 111.187 9.424 110.719 10.336C110.263 11.248 109.609 11.95 108.757 12.442C107.905 12.934 106.891 13.18 105.715 13.18C104.539 13.18 103.519 12.934 102.655 12.442C101.803 11.95 101.143 11.248 100.675 10.336C100.219 9.424 99.9911 8.332 99.9911 7.06C99.9911 5.788 100.219 4.696 100.675 3.784C101.143 2.872 101.803 2.17 102.655 1.678C103.519 1.186 104.539 0.94 105.715 0.94ZM105.715 2.974C104.707 2.974 103.927 3.328 103.375 4.036C102.835 4.732 102.565 5.74 102.565 7.06C102.565 8.38 102.835 9.394 103.375 10.102C103.927 10.798 104.707 11.146 105.715 11.146C106.711 11.146 107.479 10.798 108.019 10.102C108.571 9.394 108.847 8.38 108.847 7.06C108.847 5.74 108.571 4.732 108.019 4.036C107.479 3.328 106.711 2.974 105.715 2.974Z" fill="#F46752"/>
</svg>
